<?xml version="1.0" encoding="utf-8"?>
<!-- Generator: Adobe Illustrator 15.0.0, SVG Export Plug-In . SVG Version: 6.00 Build 0)  -->
<!DOCTYPE svg PUBLIC "-//W3C//DTD SVG 1.1//EN" "http://www.w3.org/Graphics/SVG/1.1/DTD/svg11.dtd">
<svg version="1.1" id="Layer_1" xmlns="http://www.w3.org/2000/svg" xmlns:xlink="http://www.w3.org/1999/xlink" x="0px" y="0px"
	 width="24px" height="24px" viewBox="0 0 24 24" enable-background="new 0 0 24 24" xml:space="preserve">
<path fill="#010101" d="M12.725,12L23.851,0.873c0.2-0.201,0.2-0.525-0.003-0.724c-0.2-0.198-0.525-0.2-0.726,0.002L12,11.275
	L0.878,0.151c-0.201-0.202-0.525-0.2-0.726-0.002C-0.05,0.349-0.05,0.671,0.15,0.873L11.275,12L0.15,23.128
	c-0.2,0.198-0.2,0.523,0.002,0.724C0.253,23.951,0.382,24,0.515,24c0.131,0,0.263-0.049,0.363-0.148L12,12.726l11.122,11.126
	c0.099,0.1,0.234,0.148,0.364,0.148c0.131,0,0.261-0.049,0.361-0.148c0.203-0.2,0.203-0.525,0.003-0.724L12.725,12z"/>
</svg>
